HIERARCHY
ROOT Hips
{
    OFFSET 0.000000 0.000000 0.000000
    CHANNELS 6 Xposition Yposition Zposition Zrotation Xrotation Yrotation
        JOINT Chest
        {
            OFFSET -0.000000 29.765863 -0.000000
            CHANNELS 3 Zrotation Xrotation Yrotation
            JOINT Neck
            {
                OFFSET -0.000000 22.048780 0.000000
                CHANNELS 3 Zrotation Xrotation Yrotation
                JOINT Head
                {
                    OFFSET -0.000000 10.266670 0.000000
                    CHANNELS 3 Zrotation Xrotation Yrotation
                    End Site
                    {
                        OFFSET -0.000000 15.866677 0.000000
                    }
                }
            }
            JOINT LeftCollar
            {
                OFFSET -0.000000 22.048780 0.000000
                CHANNELS 3 Zrotation Xrotation Yrotation
                JOINT LeftShoulder
                {
                    OFFSET 18.666672 -0.000000 0.000000
                    CHANNELS 3 Zrotation Xrotation Yrotation
                    JOINT LeftElbow
                    {
                        OFFSET 23.656216 0.000000 0.000000
                        CHANNELS 3 Zrotation Xrotation Yrotation
                        JOINT LeftWrist
                        {
                            OFFSET 24.590921 0.000000 0.000000
                            CHANNELS 3 Zrotation Xrotation Yrotation
                            End Site
                            {
                                OFFSET 0.000000 -14.000008 0.000000
                            }
                        }
                    }
                }
            }
            JOINT RightCollar
            {
                OFFSET -0.000000 22.048780 0.000000
                CHANNELS 3 Zrotation Xrotation Yrotation
                JOINT RightShoulder
                {
                    OFFSET -18.666672 0.000000 0.000000
                    CHANNELS 3 Zrotation Xrotation Yrotation
                    JOINT RightElbow
                    {
                        OFFSET -23.656216 0.000000 0.000000
                        CHANNELS 3 Zrotation Xrotation Yrotation
                        JOINT RightWrist
                        {
                            OFFSET -24.590921 0.000000 0.000000
                            CHANNELS 3 Zrotation Xrotation Yrotation
                            End Site
                            {
                                OFFSET -0.000000 -14.000008 0.000000
                            }
                        }
                    }
                }
            }
        }
    JOINT LeftHip
    {
        OFFSET 11.200002 0.000000 0.000000
        CHANNELS 3 Zrotation Xrotation Yrotation
        JOINT LeftKnee
        {
            OFFSET -0.000000 -37.692356 0.000000
            CHANNELS 3 Zrotation Xrotation Yrotation
            JOINT LeftAnkle
            {
                OFFSET -0.000000 -39.524944 0.000000
                CHANNELS 3 Zrotation Xrotation Yrotation
                End Site
                {
                    OFFSET -0.000000 -4.666668 15.866677
                }
            }
        }
    }
    JOINT RightHip
    {
        OFFSET -11.200002 0.000000 0.000000
        CHANNELS 3 Zrotation Xrotation Yrotation
        JOINT RightKnee
        {
            OFFSET -0.000000 -37.692356 0.000000
            CHANNELS 3 Zrotation Xrotation Yrotation
            JOINT RightAnkle
            {
                OFFSET -0.000000 -39.524944 0.000000
                CHANNELS 3 Zrotation Xrotation Yrotation
                End Site
                {
                    OFFSET -0.000000 -4.666668 15.866677
                }
            }
        }
    }
}
MOTION
Frames:    12
Frame Time:    0.010000
50.537155    83.504227    54.944771    -1.780252    -1.277366    -80.956474    -5.054913    7.796835    5.523558    1.961275    12.940355    -2.216039    5.325754    -10.685186    -1.516675    -11.834843    -0.177264    1.898327    -59.590500    39.570583    -10.173160    10.472165    -5.997858    -59.691463    82.911583    -18.758814    53.165016    15.577736    -1.118466    -8.140981    36.224903    46.596550    20.832588    3.838566    2.134748    60.173225    -87.289108    -13.903601    20.287823    12.698963    -15.248574    -7.438534    -2.416533    26.557270    5.160799    -4.304461    -9.472948    13.522651    0.188340    -0.154103    -0.340663    0.608327    16.443979    5.231214    -0.518234    -13.864930    -23.629677    
50.610226    83.500710    54.592384    -1.756863    -1.439944    -81.109734    -5.120045    7.817032    5.097896    1.857070    13.258961    -2.690368    5.707947    -10.336563    -1.980979    -11.861351    -0.212424    1.891676    -59.704086    39.234776    -10.092641    10.632114    -6.159270    -59.743805    82.274948    -18.689365    51.341324    15.785089    -1.119830    -8.124016    37.069473    46.164768    19.937937    3.773968    2.141521    60.070950    -86.757156    -14.154714    20.477402    12.805377    -15.640962    -7.296622    -3.039892    27.322922    6.069953    -3.851562    -9.807272    13.216995    0.309923    -0.133535    0.205998    0.687029    16.195145    4.846807    -0.998401    -13.519595    -23.669653    
50.699688    83.510628    54.263382    -1.666978    -1.617733    -81.251396    -5.215561    7.737416    4.696813    1.808669    13.659831    -3.188532    6.024603    -10.076888    -2.462962    -11.914798    -0.214172    1.856180    -59.806709    38.825428    -10.002433    10.740297    -6.219436    -59.711552    81.353249    -18.663401    49.113056    15.989367    -1.149090    -8.181628    37.888142    45.814449    19.099913    3.654202    2.053055    59.869236    -86.044235    -14.442543    20.568134    12.845053    -16.133266    -7.190211    -3.727785    28.178308    7.038502    -3.513523    -10.304961    12.787606    0.387024    -0.212603    0.738663    0.761856    15.986962    4.389053    -1.383965    -13.202027    -23.645256    
50.791573    83.533379    53.960819    -1.540856    -1.815545    -81.393433    -5.336434    7.594444    4.329264    1.814729    14.129179    -3.703352    6.264580    -9.902027    -2.961182    -11.985538    -0.216430    1.799138    -59.912502    38.398491    -9.899204    10.879605    -6.315027    -59.684887    80.106606    -18.579187    46.512249    16.181036    -1.205128    -8.309097    38.688114    45.543045    18.291637    3.504439    1.943489    59.578629    -85.221901    -14.737464    20.521318    12.810493    -16.666752    -7.111173    -4.454065    29.094810    7.966030    -3.337447    -10.975307    12.204086    0.416792    -0.342271    1.230902    0.824839    15.805914    3.925610    -1.674042    -12.919879    -23.579041    
50.869453    83.567337    53.685944    -1.418277    -2.037298    -81.550667    -5.476364    7.435458    4.004887    1.867520    14.645463    -4.232495    6.429468    -9.794836    -3.468414    -12.063501    -0.174579    1.734977    -59.990921    37.945911    -9.847215    10.973902    -6.339470    -59.614388    78.684502    -18.378159    43.629021    16.366467    -1.197857    -8.483710    39.445511    45.247120    17.525955    3.431865    1.916060    59.196022    -84.393051    -15.023070    20.360630    12.698937    -17.173122    -7.035456    -5.178477    30.043234    8.683672    -3.360524    -11.808847    11.465821    0.399921    -0.458777    1.666895    0.871201    15.631038    3.517234    -1.878379    -12.673958    -23.496313    
50.919456    83.610062    53.437996    -1.335291    -2.283904    -81.735916    -5.628038    7.303429    3.730088    1.952766    15.183936    -4.773904    6.532183    -9.726553    -3.985846    -12.131789    -0.204600    1.675028    -60.104095    37.589123    -9.775661    11.144562    -6.467385    -59.595188    77.089607    -17.960279    40.553478    16.523159    -1.249788    -8.677902    40.253689    45.014454    16.717535    3.202468    1.718697    58.799786    -83.317619    -15.261177    20.143810    12.510942    -17.595547    -6.935256    -5.854465    31.001431    8.999175    -3.597673    -12.775462    10.595828    0.340596    -0.505526    2.036076    0.898325    15.443646    3.217952    -2.014717    -12.461093    -23.423941    
50.933247    83.658707    53.214390    -1.315522    -2.552481    -81.957916    -5.784439    7.227494    3.505944    2.049450    15.716989    -5.325171    6.598727    -9.656989    -4.514993    -12.181708    -0.178054    1.633591    -60.174114    37.259487    -9.818773    11.165515    -6.415547    -59.460190    75.654045    -17.321033    37.387722    16.657322    -1.290498    -8.863190    41.119152    44.733395    15.822570    3.017665    1.594328    58.349854    -82.236412    -15.452351    19.859810    12.249171    -17.900537    -6.787144    -6.437795    31.958723    8.740451    -4.011958    -13.826639    9.636273    0.246313    -0.447094    2.331969    0.904533    15.232499    3.068307    -2.105032    -12.275579    -23.384947    
50.908588    83.710373    53.011578    -1.368206    -2.837116    -82.220879    -5.940125    7.220165    3.328335    2.134545    16.220156    -5.882959    6.660920    -9.543269    -5.054755    -12.201953    -0.144353    1.628413    -60.211563    37.045803    -9.977158    11.172347    -6.388176    -59.314522    74.340195    -16.403709    34.180321    16.765642    -1.307535    -9.017995    42.042271    44.396160    14.862953    2.816198    1.461580    57.870571    -81.072685    -15.564590    19.551332    11.916062    -18.078897    -6.576777    -6.891432    32.915775    7.786315    -4.500870    -14.902861    8.655145    0.126249    -0.272504    2.553722    0.889017    14.995992    3.089296    -2.170607    -12.110804    -23.393116    
50.848167    83.762299    52.825703    -1.490272    -3.129228    -82.524994    -6.090761    7.278370    3.189470    2.188501    16.678692    -6.445293    6.749446    -9.350536    -5.607183    -12.186589    -0.183492    1.665897    -60.255146    37.016682    -10.180175    11.235459    -6.398809    -59.167515    73.185913    -15.235687    31.019955    16.833572    -1.353086    -9.141296    43.044590    44.068096    13.831611    2.513888    1.240796    57.388031    -79.811897    -15.574780    19.200218    11.514412    -18.140890    -6.299871    -7.189062    33.881702    6.080118    -4.910418    -15.945316    7.745553    -0.009008    0.008405    2.707054    0.850946    14.741024    3.279328    -2.226835    -11.959572    -23.447884    
50.757652    83.811897    52.653313    -1.670195    -3.418527    -82.867409    -6.232804    7.391135    3.080430    2.199659    17.081535    -7.004201    6.879746    -9.055538    -6.164817    -12.139198    -0.182074    1.760362    -60.227882    37.089649    -10.525647    11.131355    -6.280757    -58.898186    72.449974    -13.885367    27.924013    16.866898    -1.358476    -9.233139    44.062592    43.710239    12.791453    2.245276    1.077723    56.870995    -78.642532    -15.486849    18.779547    11.047196    -18.108229    -5.962255    -7.315510    34.867771    3.637510    -5.074376    -16.909443    6.999497    -0.148331    0.372075    2.804017    0.790151    14.479616    3.614722    -2.281779    -11.815608    -23.535467    
50.644207    83.856789    52.491684    -1.891523    -3.694310    -83.243149    -6.362491    7.541831    2.992646    2.173304    17.436140    -7.558141    7.050824    -8.667976    -6.728273    -12.063905    -0.228150    1.900514    -60.164928    37.333412    -10.933566    11.081465    -6.252929    -58.639843    71.827095    -12.400090    24.847261    16.854265    -1.391131    -9.313349    45.089645    43.417904    11.768668    1.867671    0.828271    56.372311    -77.477936    -15.292721    18.275507    10.518217    -18.007257    -5.580846    -7.268780    35.880226    0.551922    -4.853255    -17.770437    6.484138    -0.281196    0.787206    2.860127    0.709302    14.225838    4.053782    -2.339467    -11.675472    -23.634804    
50.516640    83.894989    52.338505    -2.133631    -3.946302    -83.646416    -6.477031    7.711755    2.918501    2.125382    17.752165    -8.101488    7.242265    -8.213985    -7.287015    -11.973210    -0.197002    2.082760    -59.988762    37.623417    -11.486205    10.918689    -6.081932    -58.267986    71.469040    -10.893212    21.796829    16.805462    -1.411451    -9.388561    46.070877    43.158371    10.799429    1.522073    0.635008    55.859547    -76.500565    -15.025580    17.673357    9.933615    -17.866299    -5.187224    -7.066224    36.913651    -2.996716    -4.158656    -18.513454    6.234778    -0.398218    1.214954    2.890159    0.612850    13.997144    4.548950    -2.400159    -11.539781    -23.723656    
